<?xml version="1.0" encoding="UTF-8"?>
<svg height="16px" viewBox="0 0 16 16" width="16px" xmlns="http://www.w3.org/2000/svg">
    <path d="m 2.820312 10.355469 l 5.847657 -5.851563 l 3 3 l -5.828125 5.871094 l -4.027344 1.074219 z m 0 0" fill-rule="evenodd"/>
    <path d="m 11.777344 1.738281 c -0.199219 0 -0.398438 0.078125 -0.554688 0.230469 l -1.769531 1.765625 l 3.054687 3.054687 l 1.769532 -1.769531 c 0.308594 -0.308593 0.308594 -0.800781 0 -1.109375 l -1.945313 -1.941406 c -0.152343 -0.152344 -0.351562 -0.230469 -0.554687 -0.230469 z m 0 0" fill-rule="evenodd"/>
    <path d="m 15.191406 5.796875 l 0.066406 0.070313 c 0.191407 0.199218 0.1875 0.515624 -0.011718 0.707031 l -6.109375 5.90625 c -0.199219 0.195312 -0.515625 0.1875 -0.707031 -0.011719 l -0.070313 -0.070312 c -0.191406 -0.199219 -0.183594 -0.515626 0.011719 -0.707032 l 6.113281 -5.90625 c 0.199219 -0.195312 0.515625 -0.1875 0.707031 0.011719 z m 0 0"/>
</svg>
