<?xml version="1.0" encoding="UTF-8"?>
<svg height="128px" viewBox="0 0 128 128" width="128px" xmlns="http://www.w3.org/2000/svg" xmlns:xlink="http://www.w3.org/1999/xlink">
    <linearGradient id="a" gradientTransform="matrix(-1 0 -0 -1 136.086105 -172.351028)" gradientUnits="userSpaceOnUse" x1="27.99999" x2="115.999992" y1="-276" y2="-276">
        <stop offset="0" stop-color="#c0bfbc"/>
        <stop offset="0.0454545" stop-color="#ffffff"/>
        <stop offset="0.0909091" stop-color="#deddda"/>
        <stop offset="0.909091" stop-color="#deddda"/>
        <stop offset="0.954545" stop-color="#ffffff"/>
        <stop offset="1" stop-color="#c0bfbc"/>
    </linearGradient>
    <linearGradient id="b" gradientUnits="userSpaceOnUse">
        <stop offset="0" stop-color="#77767b"/>
        <stop offset="1"/>
    </linearGradient>
    <linearGradient id="c" gradientTransform="matrix(0.74442 0.811961 -0.789795 0.724097 73.830765 -63.508744)" x1="70.629921" x2="84.058144" xlink:href="#b" y1="71.887794" y2="71.887794"/>
    <linearGradient id="d" gradientTransform="matrix(1.101556 0.00403654 -0.00392635 1.071483 -11.874803 -24.736146)" x1="98.803551" x2="115.010902" xlink:href="#b" y1="43.716633" y2="43.716633"/>
    <linearGradient id="e" gradientTransform="matrix(1.101416 0.0179939 -0.0175027 1.071348 -11.266441 -26.25224)" gradientUnits="userSpaceOnUse" x1="95.121361" x2="114.10141" y1="47.683578" y2="47.683578">
        <stop offset="0"/>
        <stop offset="1" stop-color="#3d3846"/>
    </linearGradient>
    <path d="m 100.085938 119.648438 h -72 c -4.417969 0 -8 -3.582032 -8 -8 v -14.25 c 0 -4.417969 3.582031 -8 8 -8 h 72 c 4.417968 0 8 3.582031 8 8 v 14.25 c 0 4.417968 -3.582032 8 -8 8 z m 0 0" fill="#a51d2d"/>
    <path d="m 100.085938 119.648438 h -72 c -4.417969 0 -8 -3.582032 -8 -8 v -24 c 0 -4.417969 3.582031 -8 8 -8 h 72 c 4.417968 0 8 3.582031 8 8 v 24 c 0 4.417968 -3.582032 8 -8 8 z m 0 0" fill="url(#a)"/>
    <path d="m 98.960938 113.648438 h -69.75 c -5.039063 0 -9.125 -4.085938 -9.125 -9.125 v -87.875 c 0 -5.039063 4.085937 -9.125 9.125 -9.125 h 69.75 c 5.039062 0 9.125 4.085937 9.125 9.125 v 87.875 c 0 5.039062 -4.085938 9.125 -9.125 9.125 z m 0 0" fill="#f6f5f4"/>
    <path d="m 29.210938 9.523438 c -5.054688 0 -9.125 4.070312 -9.125 9.125 v 5 h 85.324218 c 0.929688 0 1.828125 -0.140626 2.675782 -0.398438 v -4.601562 c 0 -5.054688 -4.070313 -9.125 -9.125 -9.125 z m 0 0" fill="#a51d2d"/>
    <path d="m 29.210938 7.523438 c -5.054688 0 -9.125 4.070312 -9.125 9.125 v 5 h 85.324218 c 0.929688 0 1.828125 -0.140626 2.675782 -0.398438 v -4.601562 c 0 -5.054688 -4.070313 -9.125 -9.125 -9.125 z m 0 0" fill="#e01b24"/>
    <path d="m 48.085938 51.648438 v 6 h -20 v -14 h 72 v 8 z m 0 0" fill="#deddda"/>
    <path d="m 28.085938 81.648438 v -6 h 26.042968 l -0.015625 -12 h 45.972657 v 18 s -71.882813 0.03125 -72 0 z m 0 0" fill="#deddda"/>
    <path d="m 28.078125 63.660156 h 19.996094 v 5.972656 h -19.996094 z m 0 0" fill="#e01b24"/>
    <path d="m 28.078125 31.660156 h 19.996094 v 5.972656 h -19.996094 z m 0 0" fill="#e01b24"/>
    <path d="m 43.652344 73.652344 l 8.445312 8.175781 l 55.476563 -50.652344 l -12.691407 -8.429687 z m 0 0" fill="url(#c)"/>
    <path d="m 31.902344 92.9375 l 0.175781 0.171875 c 0.21875 0.210937 0.570313 0.214844 0.800781 0.011719 l 5.398438 -4.777344 c 0.105468 -0.089844 0.160156 -0.222656 0.160156 -0.355469 c -0.003906 -0.136719 -0.0625 -0.265625 -0.167969 -0.351562 l -1.175781 -0.96875 c -0.109375 -0.09375 -0.253906 -0.136719 -0.398438 -0.121094 c -0.144531 0.011719 -0.277343 0.082031 -0.367187 0.191406 l -4.472656 5.410157 c -0.199219 0.234374 -0.175781 0.578124 0.046875 0.789062 z m 0 0" fill="#5e5c64"/>
    <path d="m 33.90625 88.894531 l 1.84375 2.058594 c 0.210938 0.230469 0.5625 0.285156 0.832031 0.121094 l 15.59375 -9.300781 l -8.429687 -8.238282 l -9.898438 14.511719 c -0.179687 0.261719 -0.15625 0.609375 0.058594 0.847656 z m 0 0"/>
    <path d="m 97.433594 25.179688 l 11.152344 -10.773438 c 0.863281 -0.835938 2.261718 -0.835938 3.125 0 l 2.292968 2.214844 c 0.867188 0.832031 0.875 2.191406 0.023438 3.039062 l -11.113282 11.007813 c -0.40625 0.402343 -0.960937 0.628906 -1.539062 0.625 c -0.578125 0 -1.132812 -0.230469 -1.539062 -0.632813 l -2.429688 -2.433594 c -0.851562 -0.851562 -0.839844 -2.210937 0.027344 -3.046874 z m 0 0" fill="url(#d)"/>
    <path d="m 92.699219 24.601562 l 12.222656 11.6875 c 0.203125 0.199219 0.484375 0.304688 0.769531 0.296876 c 0.289063 -0.007813 0.5625 -0.132813 0.753906 -0.339844 l 7.097657 -7.648438 l -11.488281 -11.417968 c -0.425782 -0.421876 -1.121094 -0.429688 -1.554688 -0.015626 z m 0 0" fill="url(#e)"/>
    <path d="m 112.136719 34.648438 l -34.761719 30.859374 c -0.476562 0.425782 -1.207031 0.449219 -1.710938 0.050782 l -0.699218 -0.550782 c -0.222656 -0.175781 -0.355469 -0.433593 -0.367188 -0.710937 c -0.011718 -0.277344 0.101563 -0.542969 0.308594 -0.734375 l 37.984375 -34.808594 c 0.125 -0.113281 0.3125 -0.140625 0.464844 -0.066406 c 0.152343 0.074219 0.242187 0.234375 0.222656 0.402344 l -0.46875 3.730468 c -0.089844 0.703126 -0.433594 1.351563 -0.972656 1.828126 z m 0 0" fill="#3d3846"/>
</svg>
